<svg xmlns="http://www.w3.org/2000/svg" viewBox="0 0 1200 600" role="img" aria-label="World map silhouette">
  <rect width="1200" height="600" fill="#0f2f55"/>
  <g fill="#2f8f76" opacity="0.9">
    <path d="M98 180l82-40 74 14 60-18 88 36 14 62-40 50-68 16-54 52-84 10-50-28-48-6-28-44 22-54z"/>
    <path d="M350 360l44-26 56 12 18 44-28 34-54 8-44-22z"/>
    <path d="M492 132l78-34 86 22 52 56-40 46-70 24-80-10-48-40z"/>
    <path d="M548 260l52-12 46 18 38 68-20 78-54 46-66-6-34-72 10-74z"/>
    <path d="M690 130l84-22 82 10 64 30-20 42-70 36-82-12-60-44z"/>
    <path d="M878 260l64-14 64 22 48 58-18 58-64 36-76-12-46-52 4-62z"/>
    <path d="M946 146l44-22 68 4 40 30-30 30-54 14-58-14z"/>
    <path d="M864 456l70-10 84 16 68 44-42 30-110 14-84-26-24-42z"/>
  </g>
  <g stroke="#6bb0d9" stroke-width="1" opacity="0.28">
    <path d="M0 100h1200M0 200h1200M0 300h1200M0 400h1200M0 500h1200"/>
    <path d="M120 0v600M240 0v600M360 0v600M480 0v600M600 0v600M720 0v600M840 0v600M960 0v600M1080 0v600"/>
  </g>
</svg>
